<?xml version="1.0" encoding="utf-8"?>
<!-- Generator: Adobe Illustrator 24.1.3, SVG Export Plug-In . SVG Version: 6.00 Build 0)  -->
<svg version="1.1" id="Camada_1" xmlns="http://www.w3.org/2000/svg" xmlns:xlink="http://www.w3.org/1999/xlink" x="0px" y="0px"
	 viewBox="0 0 162.6 189.6" style="enable-background:new 0 0 162.6 189.6;" xml:space="preserve">
<style type="text/css">
	.st0{fill:#DB6255;}
	.st1{fill:#E2D9DE;}
	.st2{fill:#F4EF7B;}
</style>
<g id="Camada_2_1_">
	<g id="Layer_1">
		<path class="st0" d="M49.2,95.7c-4.8-4-8.1-8.9-8-16c0.3-14.2,0-28.3,0.2-42.5c0-2.8,1.4-5.6,1-8.3c-0.6-3.4-1.9-7.7-6.2-7.6
			c-5.9,0.2-12.5-3-17.6,2.8c-0.3,0.3-0.3,0.8-0.5,1.1c-2.9,3.6-0.1,7.3-0.1,11c0,14.9,0.3,29.8-0.2,44.6c-0.1,3.7-2.2,7.5-4,10.8
			c-1.4,2.5-3.9,4.4-6,6.5c-5.2,5-8,11.9-7.8,19.1c0.1,22.1,0,44.2,0.1,66.3c0,1.6,0.3,3.3,0.4,5.3h49.1v-30.2
			c0-9.8-0.1-19.6,0-29.3s-0.5-19.4,1-29l-1.3-4.9L49.2,95.7z"/>
		<path class="st1" d="M100.1,80.6c-0.2-0.2-0.4-0.4-0.6-0.6c-3.7-3.6-5.6-8.6-5.5-13.8c0.1-16.2,0-32.3,0.1-48.5
			c0-1.8,0.3-3.6,0.9-5.4c1.6-5.5-2.2-11.7-7.8-12.1c-4-0.3-7.9-0.3-11.9,0c-3.2,0.2-5,2-6.8,4.8c-2.7,4.2-0.2,7.9-0.2,11.9
			c0,17.1,0.2,34.3-0.2,51.4c-0.2,3.4-1.4,6.6-3.4,9.3C60,83.8,54.6,89.5,49.4,95.5l1.3,4.9v-0.2c5.3,4.3,7.4,9.7,7.4,16.1
			c0,22.2,0,44.5,0,66.7c0,1.9,0.3,3.8,0.5,6.4c15.4-0.1,30.2,0.4,45.3-0.3c0.1-2.8,0.3-4.6,0.3-6.4c0-17.6,0-35.1,0-52.7
			c-0.3-6.9,2.9-13.5,8.3-17.7l1.1-5.8C114.1,94.7,107.1,87.6,100.1,80.6z"/>
		<path class="st2" d="M162.6,130.7c0.2-7.6-2.9-15-8.5-20.2c-1.5-1.5-3-3-4.5-4.5c-3.6-3.5-5.5-8.4-5.4-13.4
			c0.1-14.2,0-28.3,0.1-42.5c0-1.6,0.1-3.1,0.5-4.6c2-7-1.4-11.6-8.7-11.7c-3,0-6,0-8.9,0s-5.2,1.2-5.7,4.1
			c-0.4,3.3-0.6,6.5-0.5,9.8c0,16,0.1,32-0.1,48c-0.1,4.5-2.5,8.1-7.2,11.5c0-0.3,0-0.5,0-0.7l-1.1,5.8l0.7-0.5v77.1H162
			c0.3-1.5,0.5-3.1,0.6-4.6C162.6,166.4,162.6,148.6,162.6,130.7z"/>
	</g>
</g>
</svg>
