<svg xmlns="http://www.w3.org/2000/svg" viewBox="0 0 162.6 189.55"><defs><style>.cls-1{fill:#db6255;}.cls-2{fill:#9e1c41;}.cls-3{fill:#f4ef7b;}</style></defs><g id="Camada_2" data-name="Camada 2"><g id="Layer_1" data-name="Layer 1"><path class="cls-1" d="M49.19,95.68c-4.83-4-8.15-8.93-8-16.05.27-14.17,0-28.34.17-42.51,0-2.77,1.44-5.65,1-8.28-.56-3.4-1.89-7.68-6.18-7.56-5.9.16-12.53-3-17.57,2.78-.27.3-.29.81-.55,1.14-2.89,3.65-.08,7.34-.09,11,0,14.88.25,29.77-.2,44.63-.11,3.67-2.16,7.48-4,10.82-1.41,2.51-3.92,4.43-6,6.54A25.68,25.68,0,0,0,0,117.32c.13,22.1,0,44.21.06,66.31,0,1.65.27,3.3.45,5.33H49.58V158.79c0-9.78-.09-19.56,0-29.33s-.54-19.37,1-29l-1.3-4.89Z"/><path class="cls-2" d="M100.06,80.61c-.2-.2-.39-.41-.59-.62A18.52,18.52,0,0,1,94,66.2c.12-16.15,0-32.31.08-48.46a19.77,19.77,0,0,1,.86-5.39C96.57,6.85,92.78.65,87.12.2a94.33,94.33,0,0,0-11.89,0c-3.19.15-5,2-6.83,4.84-2.69,4.22-.22,7.94-.22,11.87,0,17.14.17,34.29-.15,51.43a17,17,0,0,1-3.38,9.28c-4.72,6.19-10.09,11.89-15.34,17.94l1.3,4.89,0-.18C55.94,104.57,58,110,58,116.38q0,33.36,0,66.74c0,1.9.32,3.8.55,6.38,15.39-.11,30.24.35,45.32-.3.14-2.79.3-4.6.3-6.42q0-26.35,0-52.71a21.32,21.32,0,0,1,8.33-17.7l1.11-5.75C114.07,94.68,107.12,87.61,100.06,80.61Z"/><path class="cls-3" d="M162.57,130.7a26.61,26.61,0,0,0-8.51-20.15c-1.54-1.46-3-3-4.49-4.53a17.82,17.82,0,0,1-5.35-13.39c.13-14.17,0-28.34.09-42.51a17.39,17.39,0,0,1,.51-4.61c2-7-1.44-11.64-8.74-11.68-3,0-6,0-8.93.05s-5.21,1.21-5.69,4.11a62.93,62.93,0,0,0-.52,9.81c0,16,.09,32-.09,48-.06,4.52-2.48,8.07-7.21,11.5,0-.25,0-.48,0-.72l-1.11,5.75.67-.52v77.07H162a39.35,39.35,0,0,0,.63-4.65Q162.63,157.48,162.57,130.7Z"/></g></g></svg>